# xmcd
#
# Track frame offsets:
#	150
#	15396
#	33680
#	51475
#	70184
#	91549
#	108311
#	123846
#	137791
#	154706
#	169734
#	188196
#	206151
#	225235
#	241937
#	261887
#	276060
#	294542
#	312187
#	334535
#
# Disc length: 4758 seconds
#
# Revision: 0
# Processed by: cddbd v1.5.2PL0 Copyright (c) Steve Scherf et al.
# Submitted via: EasyCDDAExtractor 15.3.0.1
#
DISCID=12129414
DTITLE=Jennifer Lopez - Greatest Hits - CD 1
DYEAR=2015
DGENRE=Pop
TTITLE0=Booty (Featuring Pitbull)
TTITLE1=Live It Up (Featuring Pitbull)
TTITLE2=Dance Again (Featuring Pitbull)
TTITLE3=Goin' In (Featuring Flo Rida)
TTITLE4=On The Floor (Featuring Pitbull)
TTITLE5=Papi
TTITLE6=I Luh Ya Papi (Featuring French Montana)
TTITLE7=Do It Well
TTITLE8=Get Right
TTITLE9=I'm Into You (Featuring Lil Wayne)
TTITLE10=Ain't It Funny
TTITLE11=Let's Get Loud
TTITLE12=All I Have (Featuring LL Cool J)
TTITLE13=Love Don't Cost A Thing
TTITLE14=If You Had My Love
TTITLE15=Jenny From The Block (Featuring Styles And Jadakiss)
TTITLE16=Waiting For Tonight
TTITLE17=Hold It Don't Drop It
TTITLE18=I'm Real
TTITLE19=Que Hiciste
EXTD=
EXTT0=
EXTT1=
EXTT2=
EXTT3=
EXTT4=
EXTT5=
EXTT6=
EXTT7=
EXTT8=
EXTT9=
EXTT10=
EXTT11=
EXTT12=
EXTT13=
EXTT14=
EXTT15=
EXTT16=
EXTT17=
EXTT18=
EXTT19=
PLAYORDER=
